<svg xmlns="http://www.w3.org/2000/svg" id="Layer_2" data-name="Layer 2" viewBox="0 0 248.33 83.54" width="248.33" height="83.54"><metadata><rdf:RDF xmlns:rdf="http://www.w3.org/1999/02/22-rdf-syntax-ns#" xmlns:dc="http://purl.org/dc/elements/1.1/"><rdf:Description><dc:creator>RealFaviconGenerator</dc:creator><dc:source>https://realfavicongenerator.net</dc:source></rdf:Description></rdf:RDF></metadata><defs>
    <style>
      .cls-1 {
        fill: #fff;
      }
    </style>
  </defs><g id="Layer_1-2" data-name="Layer 1">
    <g>
      <g>
        <path class="cls-1" d="m165.41,41.86c-.7,9.8-9.07,17.8-17.75,18.35v-20.22c.94,0,1.8.01,2.67,0,1.27-.02,1.76-.78,1.15-1.89-1.31-2.35-2.66-4.67-4-6.99-.47-.82-.98-1.63-1.44-2.45-.7-1.21-1.59-1.26-2.34-.07-.84,1.33-1.59,2.71-2.38,4.07-1.05,1.82-2.13,3.63-3.16,5.48-.53.96-.02,1.8,1.1,1.85.83.04,1.66.01,2.57.01v20.14c-7.11.05-15.97-7.22-17.42-16.45-2.2-14.05,7.97-23.21,17.47-24.43,6.54-.83,12.28.97,17.06,5.37,5,4.6,6.95,10.49,6.48,17.24Z"></path>
        <path class="cls-1" d="m41.3,36.6c-.6-4.54-2.71-8.32-5.8-11.53-1.86-1.95-4.15-3.43-6.69-4.45-3.6-1.44-7.31-2.05-11.17-1.17-3.4.78-6.47,2.19-8.91,5.21-.04-.51-.06-.66-.06-.83-.08-7.27-.17-14.54-.25-21.8-.01-1.58-.41-1.98-2.01-1.98C5.18.04,3.95.15,2.73.02.84-.19.32,1.07.29,2.4.18,6.81.07,11.21.04,15.62c-.04,6.23-.06,12.46.01,18.7.04,3.08.13,6.18.52,9.24.7,5.37,3.54,9.61,7.74,12.85,4.82,3.72,10.4,4.91,16.35,3.82,7.65-1.39,12.77-5.95,15.61-13.1,1.35-3.39,1.52-6.92,1.03-10.53Zm-20.37,15.27c-7.18.06-12.28-5.88-12.17-12.03.14-7.15,5.1-12.03,12.06-12.11,6.52-.07,12.21,5.37,12.08,12.52-.11,5.88-5.69,11.89-11.98,11.62Z"></path>
        <path class="cls-1" d="m248.07,2.09c0-.08.01-.17,0-.25-.13-1.07-.91-1.78-2-1.79-1.31-.01-2.61,0-3.92,0-1.74,0-2.21.47-2.21,2.23v22.09c-1.37-1.03-2.49-2.06-3.76-2.81-4.01-2.35-8.31-3.08-12.9-2.05-5.71,1.29-10.13,4.41-13.24,9.33-2.48,3.92-3.39,8.21-3.01,12.89.37,4.57,2.03,8.55,4.99,11.88,5.31,5.97,12.21,8.16,19.89,6.53,9.87-2.09,16.14-9.79,16.33-19.19.28-12.95-.07-25.9-.16-38.86Zm-20.39,49.78c-6.48.23-12.32-5.46-12.2-12.16.1-6.37,5.37-12,12.06-12.01,6.5-.02,12.22,5.37,12.16,12.35-.04,6.29-5.88,12.1-12.02,11.82Z"></path>
        <path class="cls-1" d="m84.38,34.28c-.9-4.35-3.15-7.9-6.59-10.79-4.2-3.5-8.92-4.75-14.3-4.28-3.16.27-6.09,1.07-8.85,2.57-3.57,1.94-6.32,4.74-8.06,8.4-2.1,4.39-2.5,9.03-1.57,13.82,1.03,5.36,3.79,9.56,8.18,12.72,3.76,2.7,7.98,3.76,12.62,3.83,6.01.07,10.91-2.32,15.29-6.14.87-.77.86-2.16.04-2.99-.98-.99-1.95-1.99-2.96-2.95-.9-.85-1.76-.9-2.66-.16-3.91,3.23-8.27,4.73-13.36,3.56-4.09-.95-7.06-3.18-8.49-7.22-.56-1.54-.32-1.85,1.32-1.85h12.25c4.13,0,8.26.01,12.38,0,2.03-.01,4.56-1.7,4.8-3.51.22-1.65.28-3.41-.04-5.02Zm-8.82,2.18c-3.41-.02-6.83-.01-10.23-.01h-9.73c-1.61,0-1.97-.44-1.33-1.93,1.67-3.92,4.47-6.69,8.71-7.61,3.44-.75,6.79-.51,9.6,2,1.98,1.77,3.19,4.08,4,6.56.26.79-.32.98-1.02.98Z"></path>
        <path class="cls-1" d="m124.29,23.12c-2.09,5.2-4.19,10.41-6.28,15.62-3.27,8.19-6.5,16.4-9.76,24.61-2.54,6.36-5.08,12.71-7.69,19.04-.21.51-1.02,1.02-1.6,1.06-1.72.14-3.44.06-5.17.04-.96-.01-1.53-.55-1.46-1.49.07-.9.24-1.81.54-2.65,1.91-5.4,3.59-10.91,5.9-16.14,1.26-2.88.02-4.91-.9-7.2-2.17-5.44-4.38-10.86-6.59-16.28-2.17-5.31-4.36-10.61-6.56-15.91-.94-2.25-.42-3.05,2.04-3.05,1.35,0,2.7.06,4.04-.02,1.02-.06,1.56.47,1.92,1.29,3.62,8.33,7.24,16.66,10.85,25,.22.48.49.96.84,1.63,1.16-2.59,2.25-4.99,3.3-7.4,1.48-3.41,2.9-6.85,4.38-10.25,1.3-2.99,2.68-5.95,3.94-8.96.38-.91.88-1.32,1.85-1.29,1.6.04,3.2,0,4.8.01,1.4.01,2.13,1.05,1.61,2.35Z"></path>
        <path class="cls-1" d="m203.81,48.36c.01,3.31-.16,6.63-.22,9.93-.04,1.79-.43,2.21-2.21,2.21-1.31,0-2.61.01-3.92,0-1.23-.01-1.74-.52-1.76-1.73-.08-6.89-.11-13.79-.29-20.68-.05-1.86-.38-3.8-.99-5.56-1.35-3.86-5.71-5.99-9.76-5.19-3.66.71-6.03,2.76-7.16,6.27-.24.74-.42,1.53-.43,2.3-.12,7.53-.19,15.05-.27,22.57v.51c-.03.95-.52,1.5-1.47,1.51-1.63.03-3.28.01-4.92.01-1.04-.01-1.49-.56-1.49-1.57-.08-12.41-.17-24.83-.25-37.24,0-1.41.56-1.92,2-1.94,1.05-.01,2.11,0,3.16,0,2.69,0,2.99.25,3.36,2.97,1.64-1.75,3.54-2.92,5.86-3.33,5.18-.94,9.97-.05,14.26,3.07,3.74,2.73,5.87,6.52,6.22,11.03.39,4.93.28,9.91.3,14.86Z"></path>
      </g>
      <g>
        <path class="cls-1" d="m114.75,67.53c.31-.3.67-.53,1.09-.7.42-.17.87-.25,1.36-.25s.91.08,1.33.25c.41.17.79.43,1.12.78l.81-.78c-.4-.45-.88-.78-1.45-1.01-.57-.23-1.19-.34-1.86-.34s-1.27.11-1.83.33c-.56.22-1.05.53-1.46.93-.41.4-.74.87-.97,1.41-.23.54-.35,1.13-.35,1.78s.12,1.24.35,1.78c.23.54.55,1.01.96,1.41.41.4.89.71,1.45.93.56.22,1.17.33,1.83.33s1.3-.12,1.87-.35c.57-.23,1.05-.57,1.45-1.02l-.81-.78c-.33.36-.7.62-1.12.79-.41.17-.86.25-1.33.25s-.94-.08-1.36-.25c-.42-.17-.78-.4-1.09-.7-.31-.3-.54-.65-.71-1.06-.17-.41-.26-.85-.26-1.34s.08-.93.26-1.34c.17-.41.41-.76.71-1.06Z"></path>
        <path class="cls-1" d="m136.74,66.74c-.41-.4-.9-.71-1.47-.93-.56-.22-1.18-.33-1.84-.33s-1.29.11-1.85.34c-.56.22-1.05.54-1.47.94-.41.4-.74.87-.97,1.41-.23.54-.35,1.13-.35,1.76s.12,1.23.35,1.76c.23.54.55,1.01.97,1.41.41.4.91.72,1.47.94.57.22,1.18.34,1.84.34s1.28-.11,1.84-.33c.56-.22,1.05-.53,1.47-.93.41-.4.74-.87.96-1.41.23-.54.34-1.13.34-1.78s-.11-1.23-.34-1.77c-.23-.54-.55-1.01-.96-1.42Zm-.19,4.52c-.17.41-.41.76-.71,1.06-.3.3-.66.54-1.07.7s-.86.25-1.35.25-.93-.08-1.34-.25c-.41-.17-.77-.4-1.07-.7-.31-.3-.54-.66-.71-1.06-.17-.41-.26-.85-.26-1.33s.09-.92.26-1.32.41-.76.71-1.06c.31-.31.67-.54,1.07-.71.41-.17.86-.25,1.34-.25s.94.08,1.35.25.77.4,1.07.71c.3.31.54.66.71,1.06.17.4.25.84.25,1.32s-.09.92-.25,1.33Z"></path>
        <polygon class="cls-1" points="153.64 72.06 148.42 65.58 147.4 65.58 147.4 74.28 148.64 74.28 148.64 67.8 153.86 74.28 154.88 74.28 154.88 65.58 153.64 65.58 153.64 72.06"></polygon>
        <path class="cls-1" d="m166.45,67.53c.31-.3.67-.53,1.09-.7.42-.17.87-.25,1.36-.25s.92.08,1.33.25c.41.17.79.43,1.12.78l.81-.78c-.4-.45-.88-.78-1.45-1.01-.57-.23-1.19-.34-1.86-.34s-1.27.11-1.83.33c-.56.22-1.05.53-1.46.93-.41.4-.74.87-.97,1.41-.23.54-.35,1.13-.35,1.78s.12,1.24.35,1.78c.23.54.55,1.01.96,1.41.41.4.89.71,1.45.93.56.22,1.17.33,1.83.33s1.3-.12,1.87-.35c.57-.23,1.05-.57,1.45-1.02l-.81-.78c-.33.36-.7.62-1.12.79-.41.17-.86.25-1.33.25s-.94-.08-1.36-.25c-.42-.17-.78-.4-1.09-.7-.31-.3-.54-.65-.71-1.06-.17-.41-.25-.85-.25-1.34s.08-.93.25-1.34c.17-.41.41-.76.71-1.06Z"></path>
        <rect class="cls-1" x="181.39" y="65.58" width="1.24" height="8.7"></rect>
        <polygon class="cls-1" points="193.94 70.39 198.3 70.39 198.3 69.33 193.94 69.33 193.94 66.66 198.84 66.66 198.84 65.58 192.7 65.58 192.7 74.28 199.01 74.28 199.01 73.2 193.94 73.2 193.94 70.39"></polygon>
        <path class="cls-1" d="m213.82,71.27c.54-.24.95-.59,1.24-1.04.29-.45.44-.99.44-1.62s-.15-1.17-.44-1.63c-.29-.46-.7-.8-1.24-1.04-.54-.24-1.19-.36-1.95-.36h-3.39v8.7h1.24v-2.65h2.15c.19,0,.36-.03.54-.05l1.89,2.69h1.35l-2.08-2.93c.08-.03.17-.04.25-.08Zm-1.99-.7h-2.11v-3.91h2.11c.8,0,1.4.17,1.81.51.41.34.62.82.62,1.44s-.2,1.1-.62,1.45c-.41.34-1.01.52-1.81.52Z"></path>
        <path class="cls-1" d="m226.48,67.53c.31-.3.68-.53,1.11-.7s.89-.25,1.39-.25.94.08,1.36.24c.42.16.81.42,1.16.76l.77-.77c-.4-.45-.88-.78-1.45-1.01-.57-.22-1.2-.34-1.89-.34s-1.3.11-1.86.33c-.56.22-1.05.53-1.47.93-.42.4-.74.87-.98,1.41-.23.54-.35,1.13-.35,1.78s.12,1.24.35,1.78c.23.54.55,1.01.97,1.41.41.4.9.71,1.47.93.56.22,1.18.33,1.85.33.61,0,1.21-.09,1.78-.28.58-.19,1.08-.46,1.51-.83v-3.39h-1.19v2.82c-.22.15-.46.27-.7.36-.43.14-.87.22-1.34.22-.5,0-.96-.08-1.38-.25-.42-.17-.79-.4-1.1-.7-.31-.3-.55-.66-.72-1.07-.17-.41-.25-.85-.25-1.32s.08-.93.25-1.34c.17-.41.41-.76.72-1.06Z"></path>
        <polygon class="cls-1" points="243.26 73.2 243.26 70.39 247.63 70.39 247.63 69.33 243.26 69.33 243.26 66.66 248.16 66.66 248.16 65.58 242.02 65.58 242.02 74.28 248.33 74.28 248.33 73.2 243.26 73.2"></polygon>
      </g>
    </g>
  </g><style>@media (prefers-color-scheme: light) { :root { filter: contrast(1) brightness(0.1); } }
@media (prefers-color-scheme: dark) { :root { filter: none; } }
</style></svg>